<svg width="14" height="14" viewBox="0 0 14 14" fill="none" xmlns="http://www.w3.org/2000/svg">
<path d="M12.0285 6.84475C12.0304 7.5864 11.8571 8.31801 11.5228 8.98001C11.1263 9.77329 10.5168 10.4405 9.76254 10.907C9.00828 11.3734 8.13906 11.6207 7.25222 11.621C6.51057 11.6229 5.77896 11.4497 5.11696 11.1153L1.91406 12.1829L2.98169 8.98001C2.64732 8.31801 2.47404 7.5864 2.47597 6.84475C2.47632 5.95791 2.72356 5.08869 3.19001 4.33443C3.65645 3.58018 4.32368 2.97068 5.11696 2.57422C5.77896 2.23984 6.51057 2.06656 7.25222 2.0685H7.53318C8.7044 2.13311 9.81063 2.62747 10.6401 3.4569C11.4695 4.28634 11.9639 5.39257 12.0285 6.56379V6.84475Z" fill="#8A8FB9"/>
</svg>
