<svg width="19" height="19" viewBox="0 0 19 19" fill="none" xmlns="http://www.w3.org/2000/svg">
<path d="M11.6435 8.04054H9.43484V5.83185C9.43484 5.63659 9.35727 5.44932 9.2192 5.31125C9.08113 5.17318 8.89386 5.09561 8.6986 5.09561C8.50334 5.09561 8.31608 5.17318 8.17801 5.31125C8.03994 5.44932 7.96237 5.63659 7.96237 5.83185V8.04054H5.75368C5.55842 8.04054 5.37115 8.11811 5.23308 8.25618C5.09501 8.39425 5.01744 8.58151 5.01744 8.77677C5.01744 8.97204 5.09501 9.1593 5.23308 9.29737C5.37115 9.43544 5.55842 9.51301 5.75368 9.51301H7.96237V11.7217C7.96237 11.917 8.03994 12.1042 8.17801 12.2423C8.31608 12.3804 8.50334 12.4579 8.6986 12.4579C8.89386 12.4579 9.08113 12.3804 9.2192 12.2423C9.35727 12.1042 9.43484 11.917 9.43484 11.7217V9.51301H11.6435C11.8388 9.51301 12.0261 9.43544 12.1641 9.29737C12.3022 9.1593 12.3798 8.97204 12.3798 8.77677C12.3798 8.58151 12.3022 8.39425 12.1641 8.25618C12.0261 8.11811 11.8388 8.04054 11.6435 8.04054ZM16.5836 15.6164L13.8522 12.907C14.9125 11.5851 15.4259 9.90711 15.287 8.21819C15.1481 6.52928 14.3673 4.95778 13.1053 3.82683C11.8433 2.69587 10.196 2.09143 8.50197 2.13778C6.80799 2.18413 5.19614 2.87776 3.99787 4.07604C2.79959 5.27431 2.10596 6.88616 2.05961 8.58014C2.01326 10.2741 2.6177 11.9215 3.74865 13.1835C4.87961 14.4455 6.45111 15.2263 8.14002 15.3652C9.82894 15.5041 11.5069 14.9906 12.8289 13.9304L15.5382 16.6397C15.6066 16.7087 15.6881 16.7635 15.7778 16.8009C15.8675 16.8383 15.9637 16.8575 16.0609 16.8575C16.1581 16.8575 16.2543 16.8383 16.3441 16.8009C16.4338 16.7635 16.5152 16.7087 16.5836 16.6397C16.7163 16.5024 16.7905 16.319 16.7905 16.128C16.7905 15.9371 16.7163 15.7537 16.5836 15.6164V15.6164ZM8.6986 13.9304C7.67931 13.9304 6.68291 13.6281 5.8354 13.0619C4.98789 12.4956 4.32734 11.6907 3.93728 10.749C3.54721 9.80728 3.44515 8.77106 3.64401 7.77135C3.84286 6.77165 4.33369 5.85336 5.05444 5.13261C5.77519 4.41187 6.69348 3.92103 7.69318 3.72218C8.69289 3.52332 9.72911 3.62538 10.6708 4.01545C11.6125 4.40551 12.4174 5.06607 12.9837 5.91357C13.55 6.76108 13.8522 7.75748 13.8522 8.77677C13.8522 10.1436 13.3093 11.4544 12.3428 12.4209C11.3763 13.3874 10.0654 13.9304 8.6986 13.9304V13.9304Z" fill="#535399"/>
</svg>
